<?xml version="1.0" encoding="utf-8"?>
<!-- Generator: Adobe Illustrator 26.1.0, SVG Export Plug-In . SVG Version: 6.00 Build 0)  -->
<svg version="1.1" id="Layer_1" xmlns="http://www.w3.org/2000/svg" xmlns:xlink="http://www.w3.org/1999/xlink" x="0px" y="0px"
	 viewBox="0 0 500 500" style="enable-background:new 0 0 500 500;" xml:space="preserve">
<style type="text/css">
	.st0{fill:#DCB795;}
</style>
<g>
	<g id="rSIVMo.tif">
		<g>
			<path d="M322.43,348.38c1.46,8.13,2.83,15.84,4.24,23.53c0.81,4.43-0.77,6.4-5.28,6.4c-47.58,0.01-95.16,0.01-142.73,0
				c-4.54,0-6.15-1.97-5.34-6.35c1.16-6.3,2.28-12.6,3.49-19.31c-1.08,0-2,0-2.93,0c-9.8,0-19.6,0.01-29.4,0
				c-4.42,0-5.99-1.66-5.6-6.05c2.23-25.55,4.51-51.1,6.73-76.65c2.23-25.64,4.4-51.28,6.62-76.92c1.18-13.66,2.44-27.32,3.6-40.98
				c0.19-2.19,1.14-3.65,3.06-4.61c16.65-8.3,33.28-16.64,49.95-24.9c1.14-0.57,2.55-0.83,3.84-0.83
				c24.86-0.05,49.72-0.05,74.57,0.01c1.45,0,3.02,0.38,4.32,1.03c16.34,8.1,32.63,16.3,48.97,24.39c2.44,1.21,3.48,2.88,3.72,5.59
				c2.42,28.04,4.93,56.06,7.43,84.09c2.77,31.04,5.57,62.09,8.36,93.13c0.38,4.26,0.8,8.51,1.11,12.77
				c0.29,3.9-1.33,5.64-5.23,5.65c-10.07,0.02-20.14,0.01-30.2,0.01C324.75,348.38,323.78,348.38,322.43,348.38z M209.68,131.68
				c-13.3,6.64-26.26,13.35-39.45,19.56c-4.42,2.08-7.22,4.41-6.58,9.6c0.13,1.04-0.17,2.12-0.26,3.19
				c-1.5,17.3-2.99,34.61-4.49,51.91c-1.71,19.7-3.43,39.4-5.15,59.09c-1.53,17.48-3.07,34.96-4.59,52.44
				c-0.48,5.46-0.91,10.92-1.38,16.51c10.39,0,20.43,0,30.47,0c0.19-0.71,0.4-1.3,0.51-1.91c3.23-17.77,6.47-35.55,9.67-53.33
				c0.58-3.23,1.77-6.59,1.35-9.71c-2.24-16.76-4.9-33.47-7.41-50.19c-1.68-11.17-3.35-22.34-5.07-33.73
				c2.82-0.44,5.51-0.86,8.35-1.31c0.25,1.31,0.49,2.42,0.66,3.55c3.71,24.65,7.42,49.29,11.09,73.95c0.5,3.33,1.53,6.84,0.98,10.03
				c-4.09,23.77-8.53,47.47-12.85,71.2c-1.03,5.66-2.04,11.32-3.07,17.05c45.15,0,89.99,0,134.92,0c-0.07-0.73-0.07-1.27-0.17-1.79
				c-5.22-28.72-10.47-57.43-15.65-86.16c-0.23-1.28-0.13-2.66,0.06-3.96c3.08-20.78,6.2-41.56,9.31-62.33
				c1.07-7.11,2.15-14.22,3.26-21.59c2.91,0.45,5.59,0.87,8.42,1.31c-0.35,2.34-0.65,4.43-0.97,6.53
				c-3.5,23.33-7.02,46.65-10.47,69.99c-0.49,3.31-1.27,6.78-0.79,10c1.53,10.38,3.58,20.69,5.46,31.02
				c1.63,9,3.31,17.99,4.96,27.01c10.53,0,20.88,0,31.34,0c-0.09-1.37-0.14-2.53-0.24-3.68c-1.71-19.07-3.43-38.14-5.13-57.22
				c-1.69-18.98-3.33-37.97-5.01-56.96c-1.91-21.56-3.86-43.11-5.71-64.68c-0.16-1.91-0.77-3-2.54-3.87
				c-13.73-6.77-27.4-13.65-41.1-20.48c-0.68-0.34-1.4-0.59-2.15-0.91c-0.53,0.96-0.96,1.73-1.37,2.52
				c-11.5,21.71-23,43.41-34.49,65.12c-0.96,1.82-2.05,3.42-4.32,3.47c-2.4,0.06-3.56-1.57-4.57-3.49
				c-5.63-10.71-11.31-21.4-16.98-32.1C222.32,155.54,216.08,143.75,209.68,131.68z M250,189.51
				c10.58-19.98,20.87-39.43,31.27-59.08c-21.01,0-41.6,0-62.54,0C229.16,150.14,239.43,169.54,250,189.51z"/>
		</g>
	</g>
	<path class="st0" d="M250,495C114.91,495,5,385.09,5,250S114.91,5,250,5s245,109.91,245,245S385.09,495,250,495z M250,17.83
		C121.98,17.83,17.83,121.98,17.83,250c0,128.02,104.15,232.17,232.17,232.17c128.02,0,232.17-104.15,232.17-232.17
		C482.17,121.98,378.02,17.83,250,17.83z"/>
</g>
</svg>
