<?xml version="1.0" encoding="utf-8"?>
<!-- Generator: Adobe Illustrator 26.1.0, SVG Export Plug-In . SVG Version: 6.00 Build 0)  -->
<svg version="1.1" id="Layer_1" xmlns="http://www.w3.org/2000/svg" xmlns:xlink="http://www.w3.org/1999/xlink" x="0px" y="0px"
	 viewBox="0 0 500 500" style="enable-background:new 0 0 500 500;" xml:space="preserve">
<style type="text/css">
	.st0{fill:#DCB795;}
</style>
<g>
	<g>
		<path d="M323.53,153.28c-6.85,0-13.43,0-20.02,0c-2.92,0-5.85,0.03-8.77-0.01c-2.64-0.03-4.16-1.35-4.24-3.58
			c-0.08-2.34,1.49-3.9,4.19-3.92c8.69-0.05,17.37-0.02,26.06-0.03c0.49,0,0.99-0.06,1.66-0.1c0-5.42,0-10.78,0-16.3
			c-13.41,0-26.74,0-40.49,0c0,1.11,0,2.23,0,3.35c0,75.93-0.01,151.86,0.02,227.79c0,5.35-1.24,10.1-5.34,13.76
			c-3.26,2.92-7.14,4.08-11.51,4.08c-35.08-0.03-70.16-0.02-105.24-0.02c-5.68,0-11.36,0.01-17.04,0c-3.85-0.01-5.25-1.3-5.02-5.11
			c1.23-20.17,1.9-40.39,3.97-60.48c2.58-25.06,5.87-50.06,9.69-74.97c4.44-28.94,10.43-57.61,17.7-86
			c0.69-2.69,0.61-5.61,0.68-8.43c0.11-4.34,0-8.69,0.03-13.03c0.04-5.39,3.21-8.61,8.55-8.61c47.69-0.01,95.38-0.01,143.07,0
			c5.38,0,9.04,3.23,8.55,8.53c-1.54,16.36,3.42,31.69,6.91,47.27c6.23,27.86,11.59,55.89,15.26,84.19
			c3.05,23.5,5.58,47.08,7.81,70.67c1.29,13.62,1.54,27.34,2.2,41.02c0.17,3.62-1.24,4.93-4.96,4.93c-21.97,0.01-43.93,0.01-65.9,0
			c-3.19,0-4.86-1.3-4.87-3.74c-0.02-2.45,1.65-3.78,4.82-3.78c20.05-0.01,40.09,0,60.14,0c0.98,0,1.96,0,3.19,0
			C351.95,297.1,341.1,224.89,323.53,153.28z M145.37,370.78c1.12,0,2.01,0,2.9,0c38.75,0,77.51,0,116.26,0
			c6.68,0,9.86-3.14,9.86-9.78c0.01-68.33,0.01-136.65,0-204.98c0-0.87-0.08-1.75-0.13-2.57c-32.78,0-65.24,0-97.83,0
			C158.9,224.85,148.04,297.06,145.37,370.78z M274.25,129.35c-32.35,0-64.47,0-96.67,0c0,5.51,0,10.88,0,16.27
			c32.3,0,64.42,0,96.67,0C274.25,140.17,274.25,134.86,274.25,129.35z"/>
		<path d="M254.08,257.74c-6.5,0.05-11.8-5.19-11.84-11.71c-0.04-6.5,5.2-11.81,11.71-11.86c6.48-0.05,11.8,5.22,11.85,11.72
			C265.85,252.39,260.6,257.7,254.08,257.74z M258.23,245.89c-0.05-2.39-2.02-4.24-4.42-4.13c-2.29,0.11-4.04,1.98-4,4.29
			c0.04,2.4,2,4.23,4.41,4.12C256.53,250.07,258.27,248.2,258.23,245.89z"/>
		<path d="M254.11,185.4c-6.56,0.04-11.81-5.12-11.87-11.66c-0.06-6.48,5.21-11.85,11.68-11.91c6.45-0.06,11.81,5.23,11.88,11.71
			C265.88,180.04,260.62,185.36,254.11,185.4z M258.24,173.63c-0.01-2.35-1.99-4.3-4.3-4.24c-2.34,0.05-4.19,2.03-4.12,4.41
			c0.07,2.31,1.85,4.05,4.16,4.07C256.37,177.87,258.25,176.01,258.24,173.63z"/>
		<path d="M254.07,221.55c-6.55,0.03-11.8-5.16-11.83-11.69c-0.03-6.5,5.23-11.83,11.72-11.87c6.45-0.04,11.8,5.27,11.84,11.76
			C265.85,216.26,260.62,221.52,254.07,221.55z M258.23,209.78c-0.02-2.36-1.98-4.28-4.3-4.23c-2.34,0.06-4.18,2.03-4.11,4.41
			c0.07,2.31,1.84,4.03,4.17,4.04C256.39,214.01,258.25,212.16,258.23,209.78z"/>
	</g>
	<path class="st0" d="M250,495C114.91,495,5,385.09,5,250S114.91,5,250,5s245,109.91,245,245S385.09,495,250,495z M250,17.83
		C121.98,17.83,17.83,121.98,17.83,250c0,128.02,104.15,232.17,232.17,232.17c128.02,0,232.17-104.15,232.17-232.17
		C482.17,121.98,378.02,17.83,250,17.83z"/>
</g>
</svg>
