<?xml version="1.0" encoding="utf-8"?>
<!-- Generator: Adobe Illustrator 26.1.0, SVG Export Plug-In . SVG Version: 6.00 Build 0)  -->
<svg version="1.1" id="Layer_1" xmlns="http://www.w3.org/2000/svg" xmlns:xlink="http://www.w3.org/1999/xlink" x="0px" y="0px"
	 viewBox="0 0 500 500" style="enable-background:new 0 0 500 500;" xml:space="preserve">
<style type="text/css">
	.st0{fill:#DCB795;}
</style>
<g>
	<path d="M249.65,335.89c-0.75,10.31-1.51,20.63-2.25,30.94c-0.91,12.66-1.78,25.33-2.71,37.99c-0.26,3.59-2.21,5.53-5.79,5.54
		c-13.9,0.06-27.8,0.06-41.7,0c-4.18-0.02-5.9-2.2-5.9-7.1c-0.01-39.77-0.04-79.53,0.02-119.3c0.02-11.8-0.36-23.65,0.59-35.39
		c1.3-15.98,6.88-30.99,12.58-45.85c0.99-2.58,1.02-4.41-0.57-6.93c-4.73-7.46-6.39-16.09-7.87-24.63
		c-1.79-10.3-3.05-20.69-4.61-31.03c-0.45-3.01,0.38-5.34,2.59-7.49c5.6-5.42,11.12-10.92,16.48-16.57
		c1.14-1.21,1.95-3.18,2.04-4.84c0.26-5.11,0.06-10.24,0.11-15.37c0.03-3.93,2.11-6.31,5.36-6.29c3.25,0.02,5.27,2.39,5.31,6.35
		c0.04,4.79-0.1,9.58,0.1,14.37c0.04,0.95,1.09,2.38,1.98,2.7c7.53,2.69,15.11,5.22,22.72,7.66c1.18,0.38,2.68,0.38,3.86,0.01
		c7.51-2.4,14.94-5.03,22.45-7.42c1.86-0.59,2.34-1.54,2.3-3.36c-0.11-4.68-0.07-9.36-0.03-14.03c0.04-3.91,2.13-6.3,5.38-6.27
		c3.24,0.03,5.26,2.4,5.29,6.37c0.04,5.23-0.1,10.47,0.09,15.7c0.05,1.37,0.7,3.04,1.64,4.02c5.63,5.86,11.54,11.44,17.08,17.38
		c1.36,1.45,2.55,3.96,2.36,5.83c-1.65,16.16-3.47,32.33-8.44,47.9c-1.14,3.56-3.2,6.81-4.6,10.3c-0.5,1.24-0.81,2.94-0.38,4.12
		c5.19,13.98,10.12,28.04,12.5,42.83c0.67,4.16,1.06,8.41,1.07,12.62c0.07,48.68,0.05,97.35,0.05,146.03c0,6.13-1.56,7.69-7.67,7.69
		c-12.9,0-25.8,0.01-38.7,0c-5.09-0.01-6.73-1.6-7.09-6.67c-1.56-22.1-3.14-44.21-4.72-66.31c-0.04-0.52-0.16-1.03-0.25-1.54
		C250.09,335.87,249.87,335.88,249.65,335.89z M298.05,399.6c0-1.23,0-2.2,0-3.18c0-46.77,0-93.54-0.02-140.32
		c0-2.11-0.1-4.24-0.37-6.33c-2.04-16.14-7.47-31.31-13.31-46.35c-0.11-0.28-0.42-0.48-0.66-0.73c-7.34,1.2-14.63,2.39-22.19,3.63
		c1.48,8.83,2.93,17.37,4.34,25.91c0.61,3.73-1.21,6.55-4.41,7.02c-3.07,0.45-5.49-1.54-6.12-5.18c-1.15-6.69-2.23-13.39-3.36-20.07
		c-0.39-2.29-0.86-4.57-1.29-6.85c-0.39,0-0.78,0.01-1.17,0.01c-0.26,0.98-0.61,1.94-0.78,2.93c-1.33,7.78-2.61,15.58-3.94,23.36
		c-0.72,4.21-3.01,6.29-6.26,5.79c-3.39-0.53-4.95-3.43-4.22-7.71c1.4-8.31,2.76-16.64,4.19-25.23c-7.66-1.24-15.04-2.44-22.65-3.67
		c-1.89,5.21-3.75,10.2-5.52,15.22c-5.61,15.96-8.7,32.2-8.5,49.33c0.5,42.76,0.16,85.52,0.16,128.29c0,1.3,0,2.61,0,4.01
		c10.94,0,21.55,0,32.22,0c0.13-0.6,0.27-1.02,0.3-1.45c1.84-25.87,3.66-51.75,5.5-77.62c1.54-21.65,3.09-43.31,4.67-64.96
		c0.24-3.29,2.31-5.38,5.2-5.46c3.01-0.08,5.24,2.07,5.49,5.51c1.57,21.54,3.12,43.08,4.65,64.62c1.65,23.21,3.27,46.42,4.92,69.63
		c0.23,3.27,0.55,6.54,0.83,9.84C276.62,399.6,287.07,399.6,298.05,399.6z M249.92,196.99c9.76-1.48,19.47-3.39,29.28-4.3
		c6.47-0.6,9.84-3.49,10.93-9.64c2.46-13.88,5-27.74,7.35-41.63c0.17-1.03-0.6-2.53-1.4-3.37c-4.46-4.66-9.13-9.11-13.58-13.78
		c-1.48-1.55-2.73-1.62-4.65-0.94c-8.06,2.83-16.14,5.62-24.31,8.08c-2.16,0.65-4.86,0.63-7.03-0.03
		c-8.27-2.51-16.41-5.47-24.65-8.09c-1.1-0.35-2.95-0.12-3.73,0.62c-5.01,4.73-9.84,9.66-14.65,14.6c-0.6,0.62-1.11,1.75-1.02,2.58
		c1.6,14.81,3.54,29.56,7.99,43.87c1.36,4.38,3.48,6.78,8.39,7.35C229.2,193.5,239.47,195.37,249.92,196.99z"/>
	<path class="st0" d="M250,495C114.91,495,5,385.09,5,250S114.91,5,250,5s245,109.91,245,245S385.09,495,250,495z M250,17.83
		C121.98,17.83,17.83,121.98,17.83,250c0,128.02,104.15,232.17,232.17,232.17c128.02,0,232.17-104.15,232.17-232.17
		C482.17,121.98,378.02,17.83,250,17.83z"/>
</g>
</svg>
