<?xml version="1.0" encoding="utf-8"?>
<!-- Generator: Adobe Illustrator 26.1.0, SVG Export Plug-In . SVG Version: 6.00 Build 0)  -->
<svg version="1.1" id="Layer_1" xmlns="http://www.w3.org/2000/svg" xmlns:xlink="http://www.w3.org/1999/xlink" x="0px" y="0px"
	 viewBox="0 0 500 500" style="enable-background:new 0 0 500 500;" xml:space="preserve">
<style type="text/css">
	.st0{fill:#DCB795;}
</style>
<g>
	<path d="M250.11,410.41c-27.75,0-55.5,0-83.25,0c-5.8,0-7.31-1.7-6.54-7.35c8.88-65.68,25.18-129.46,48.71-191.41
		c0.48-1.26,0.58-2.85,0.32-4.18c-2.68-13.92-5.42-27.83-8.33-41.71c-0.25-1.21-1.64-2.6-2.84-3.14
		c-8.27-3.71-16.63-7.19-24.95-10.8c-6.27-2.72-8.28-7.15-6.14-13.64c3.32-10.1,6.71-20.17,10.08-30.25
		c2.71-8.09,8.28-12.75,16.72-14.04c32.46-4.96,64.99-5.67,97.61-1.9c4.97,0.57,9.93,1.22,14.88,1.96
		c7.93,1.18,13.44,5.6,16.09,13.11c3.72,10.51,7.17,21.12,10.6,31.73c1.85,5.71-0.28,10.38-5.8,12.81
		c-8.19,3.62-16.42,7.19-24.71,10.58c-2.36,0.97-3.54,2.16-4.03,4.81c-2.52,13.53-5.34,27-7.95,40.51
		c-0.26,1.33-0.14,2.92,0.34,4.18c20.82,54.42,35.58,110.47,45.27,167.88c1.35,8.02,2.36,16.1,3.53,24.15
		c0.66,4.56-1.11,6.68-5.75,6.68C306.03,410.41,278.07,410.41,250.11,410.41z M229.9,214.51c-3.35,0-6.46,0.09-9.56-0.04
		c-1.75-0.07-2.59,0.55-3.18,2.21c-2.14,6.09-4.52,12.11-6.66,18.2c-15.88,45.13-27.82,91.3-36.17,138.4
		c-1.61,9.1-2.9,18.26-4.35,27.49c13.7,0,26.99,0,40.38,0c0.08-1.14,0.14-2.07,0.2-2.99c1.32-18.22,2.38-36.46,4.02-54.64
		c1.95-21.72,4.3-43.4,6.66-65.08c1.21-11.09,2.81-22.15,4.29-33.21c0.42-3.14,2.54-4.81,5.31-4.45c2.7,0.35,4.29,2.62,4,5.72
		c-0.03,0.31-0.1,0.62-0.14,0.93c-2.61,21.65-5.56,43.26-7.73,64.95c-2.44,24.4-4.2,48.86-6.2,73.3
		c-0.42,5.15-0.59,10.31-0.88,15.46c20.29,0,40.16,0,59.99,0c0-1.68,0.1-3.14-0.01-4.58c-1.78-22.99-3.22-46.02-5.49-68.97
		c-2.66-26.78-6.05-53.49-9.16-80.22c-0.43-3.68,0.77-6.03,3.63-6.55c3.06-0.56,5.18,1.24,5.65,5.08
		c2.74,22.79,5.74,45.55,8.05,68.37c2.3,22.73,3.91,45.54,5.78,68.31c0.51,6.2,0.86,12.41,1.29,18.64c13.55,0,26.77,0,40.15,0
		c-0.15-1.48-0.23-2.82-0.43-4.14c-5.99-41.13-14.82-81.65-26.91-121.41c-5.91-19.43-12.84-38.54-19.39-57.77
		c-0.38-1.12-1.4-2.77-2.25-2.85c-3.48-0.32-7.01-0.14-10.76-0.14c0.47,3.16,0.94,5.92,1.26,8.7c0.43,3.77-0.99,5.94-3.95,6.24
		c-2.96,0.3-4.81-1.46-5.4-5.18c-0.5-3.17-0.99-6.34-1.5-9.62c-7.07,0-13.92,0-20.94,0c-0.53,3.42-1,6.71-1.56,9.99
		c-0.59,3.45-2.52,5.13-5.4,4.8c-2.86-0.32-4.3-2.43-3.91-5.98C228.95,220.61,229.44,217.75,229.9,214.51z M324.46,142.58
		c-3.76-11.2-7.34-22.08-11.09-32.9c-1.26-3.63-4.08-5.72-7.89-6.34c-3.39-0.55-6.84-0.84-10.2-1.54c-2.69-0.56-4.27,0.05-5.85,2.51
		c-8.92,13.87-19.39,26.38-32.8,36.2c-6.76,4.95-6.89,4.93-13.55,0.06c-13.59-9.94-24.11-22.68-33.18-36.7
		c-1.28-1.97-2.52-2.61-4.81-2.1c-2.74,0.6-5.56,0.86-8.36,1.11c-5.87,0.54-9.63,3.52-11.14,9.29c-0.31,1.21-0.78,2.37-1.18,3.56
		c-2.94,8.88-5.88,17.76-8.89,26.86c7.58,3.24,14.96,6.4,22.88,9.79c-1.02-5.08-1.91-9.46-2.79-13.84c-0.96-4.8,0.16-7.42,3.42-8.02
		c3.05-0.56,4.92,1.48,5.86,6.2c4.37,21.98,8.79,43.95,13.13,65.93c0.34,1.72,0.93,2.47,2.81,2.46c19.4-0.06,38.8-0.06,58.2,0
		c1.84,0.01,2.51-0.64,2.86-2.41c4.32-21.88,8.72-43.75,13.08-65.62c1.01-5.05,2.78-7.1,5.85-6.59c3.42,0.58,4.45,3.27,3.35,8.59
		c-0.88,4.26-1.7,8.54-2.64,13.3C309.42,149.03,316.76,145.89,324.46,142.58z M219.15,100.42c0.29,0.64,0.4,1.02,0.61,1.34
		c7.74,11.49,16.71,21.85,27.67,30.42c1.84,1.44,3.05,1.34,4.83-0.03c11.08-8.6,20.07-19.08,27.86-30.66
		c0.19-0.28,0.19-0.69,0.3-1.12C259.94,98.6,239.7,98.54,219.15,100.42z"/>
	<path class="st0" d="M250,495C114.91,495,5,385.09,5,250S114.91,5,250,5s245,109.91,245,245S385.09,495,250,495z M250,17.83
		C121.98,17.83,17.83,121.98,17.83,250c0,128.02,104.15,232.17,232.17,232.17S482.17,378.02,482.17,250
		C482.17,121.98,378.02,17.83,250,17.83z"/>
</g>
</svg>
