<?xml version="1.0" encoding="utf-8"?>
<!-- Generator: Adobe Illustrator 26.1.0, SVG Export Plug-In . SVG Version: 6.00 Build 0)  -->
<svg version="1.1" id="Layer_1" xmlns="http://www.w3.org/2000/svg" xmlns:xlink="http://www.w3.org/1999/xlink" x="0px" y="0px"
	 viewBox="0 0 1080 203.24" style="enable-background:new 0 0 1080 203.24;" xml:space="preserve">
<g>
	<path d="M69.56,199.76c-10.04,0-19.12-2.51-27.24-7.53c-8.12-5.02-14.56-11.72-19.3-20.12c-4.75-8.39-7.12-17.79-7.12-28.2
		l0.27-85.41c0-10.03,2.33-19.21,6.98-27.51c4.65-8.3,11.04-14.96,19.16-19.98c8.12-5.02,17.2-7.53,27.24-7.53
		c10.03,0,19.07,2.46,27.1,7.39c8.03,4.93,14.41,11.55,19.16,19.85c4.74,8.31,7.12,17.57,7.12,27.79V71.1c0,0.73-0.37,1.1-1.09,1.1
		H91.19c-0.73,0-1.09-0.36-1.09-1.1V58.5c0-6.02-1.96-11.22-5.89-15.6c-3.93-4.38-8.81-6.57-14.65-6.57
		c-6.57,0-11.59,2.24-15.06,6.71c-3.47,4.47-5.2,9.63-5.2,15.47v85.41c0,6.75,1.96,12.23,5.89,16.43c3.92,4.2,8.71,6.3,14.37,6.3
		c5.84,0,10.72-2.33,14.65-6.98c3.92-4.65,5.89-9.9,5.89-15.74v-12.59c0-0.73,0.36-1.09,1.09-1.09h30.93c0.73,0,1.09,0.37,1.09,1.09
		v12.59c0,10.4-2.42,19.81-7.25,28.2c-4.84,8.4-11.27,15.1-19.3,20.12C88.63,197.25,79.59,199.76,69.56,199.76z"/>
	<path d="M157.98,197.02c-0.73,0-1.09-0.45-1.09-1.37l0.27-187.8c0-0.91,0.45-1.37,1.37-1.37h30.39c0.91,0,1.37,0.46,1.37,1.37
		l-0.27,155.49h56.39c0.91,0,1.37,0.46,1.37,1.37v30.94c0,0.92-0.46,1.37-1.37,1.37H157.98z"/>
	<path d="M324.15,199.76c-9.68,0-18.62-2.51-26.83-7.53c-8.21-5.02-14.74-11.72-19.57-20.12c-4.84-8.39-7.25-17.61-7.25-27.65
		l0.55-136.88c0-0.73,0.36-1.1,1.09-1.1h30.66c0.73,0,1.1,0.37,1.1,1.1v136.88c0,6.21,1.96,11.45,5.89,15.74
		c3.92,4.29,8.71,6.43,14.37,6.43c5.84,0,10.72-2.14,14.65-6.43c3.92-4.29,5.89-9.53,5.89-15.74V7.59c0-0.73,0.36-1.1,1.09-1.1
		h30.66c0.73,0,1.1,0.37,1.1,1.1l0.55,136.88c0,10.22-2.42,19.53-7.25,27.92c-4.84,8.4-11.32,15.06-19.44,19.98
		C343.27,197.3,334.18,199.76,324.15,199.76z"/>
	<path d="M414.49,197.02c-0.73,0-1.1-0.45-1.1-1.37l0.55-188.07c0-0.73,0.36-1.1,1.09-1.1h52.56c10.4,0,19.71,2.51,27.92,7.53
		c8.21,5.02,14.69,11.63,19.44,19.85c4.74,8.21,7.12,17.16,7.12,26.83c0,7.85-1.78,15.15-5.34,21.9
		c-3.56,6.75-7.8,12.23-12.73,16.43c5.29,5.3,9.4,11.41,12.32,18.34c2.92,6.94,4.38,14.24,4.38,21.9c0,10.59-2.56,20.26-7.67,29.02
		c-5.11,8.76-12,15.74-20.67,20.94c-8.67,5.2-18.3,7.8-28.88,7.8H414.49z M446.52,163.63h16.97c6.57,0,12.22-2.42,16.97-7.25
		c4.74-4.83,7.12-10.54,7.12-17.11c0-6.57-2.37-12.23-7.12-16.97c-4.75-4.74-10.4-7.12-16.97-7.12h-16.7L446.52,163.63z
		 M446.79,82.05h20.81c6.39,0,11.54-2.23,15.47-6.71c3.92-4.47,5.89-9.35,5.89-14.65c0-5.84-2.1-10.9-6.3-15.19
		c-4.2-4.29-9.22-6.43-15.06-6.43h-20.81V82.05z"/>
	<path d="M657.03,199.76c-9.68,0-18.57-2.51-26.69-7.53c-8.12-5.02-14.65-11.63-19.57-19.85c-4.93-8.21-7.39-17.25-7.39-27.1v-16.97
		c0-7.66,1.46-14.83,4.38-21.49c2.92-6.66,6.84-12.55,11.77-17.66c-4.02-4.38-7.16-9.53-9.44-15.47
		c-2.28-5.93-3.42-12.27-3.42-19.03c0-9.49,2.23-18.11,6.71-25.87c4.47-7.75,10.54-13.91,18.21-18.48
		c7.67-4.56,16.15-6.84,25.46-6.84c9.31,0,17.75,2.33,25.32,6.98c7.57,4.65,13.64,10.81,18.2,18.48c4.56,7.67,6.84,16.25,6.84,25.73
		c0,6.75-1.14,13.05-3.42,18.89c-2.28,5.84-5.43,11.04-9.45,15.6c4.93,4.93,8.8,10.77,11.64,17.52c2.83,6.75,4.24,13.96,4.24,21.63
		v16.97c0,9.85-2.42,18.94-7.25,27.24c-4.84,8.31-11.27,14.92-19.3,19.85C675.82,197.3,666.89,199.76,657.03,199.76z M657.03,166.91
		c5.65,0,10.45-2.1,14.37-6.3c3.92-4.2,5.89-9.31,5.89-15.33v-16.97c0-5.84-1.96-10.9-5.89-15.19c-3.93-4.29-8.72-6.43-14.37-6.43
		c-5.66,0-10.5,2.1-14.51,6.3c-4.02,4.2-6.02,9.31-6.02,15.33v16.97c0,5.84,2.01,10.91,6.02,15.19
		C646.53,164.77,651.37,166.91,657.03,166.91z M657.03,73.01c4.74,0,8.8-1.78,12.18-5.34c3.38-3.56,5.07-7.89,5.07-13
		c0-5.11-1.69-9.49-5.07-13.14c-3.38-3.65-7.44-5.48-12.18-5.48c-4.75,0-8.85,1.83-12.32,5.48c-3.47,3.65-5.2,8.03-5.2,13.14
		c0,4.93,1.73,9.22,5.2,12.87C648.18,71.19,652.28,73.01,657.03,73.01z"/>
	<path d="M801.02,199.76c-11.68,0-22-2.51-30.94-7.53c-8.94-5.02-15.92-11.68-20.94-19.98c-5.02-8.3-7.53-17.47-7.53-27.51
		l0.27-86.78c0-10.04,2.51-19.16,7.53-27.38c5.02-8.21,12-14.78,20.94-19.71c8.94-4.93,19.16-7.39,30.66-7.39
		c11.68,0,21.9,2.46,30.66,7.39c8.76,4.93,15.65,11.5,20.67,19.71c5.02,8.21,7.53,17.34,7.53,27.38l0.27,86.78
		c0,10.04-2.51,19.21-7.53,27.51c-5.02,8.31-11.95,14.97-20.81,19.98C822.96,197.25,812.7,199.76,801.02,199.76z M827.03,144.74
		l-0.27-86.78c0-6.39-2.37-11.59-7.12-15.6c-4.75-4.01-10.95-6.02-18.62-6.02c-7.85,0-14.15,2.01-18.89,6.02
		c-4.75,4.02-7.12,9.22-7.12,15.6v86.78c0,6.75,2.37,12.09,7.12,16.02c4.74,3.93,11.04,5.89,18.89,5.89
		c7.67,0,13.91-1.96,18.75-5.89C824.61,156.83,827.03,151.49,827.03,144.74z"/>
	<path d="M894.64,70.82V53.85c4.56,0,8.44-1.73,11.64-5.2c3.19-3.46,4.79-7.57,4.79-12.32h-15.33c-0.73,0-1.1-0.36-1.1-1.1V4.57
		c0-0.73,0.36-1.1,1.1-1.1h30.93c0.73,0,1.1,0.37,1.1,1.1v31.76c0,6.39-1.55,12.23-4.65,17.52c-3.11,5.3-7.16,9.45-12.18,12.46
		C905.91,69.32,900.48,70.82,894.64,70.82z"/>
	<path d="M1010.44,199.76c-9.86,0-18.85-2.51-26.97-7.53c-8.12-5.02-14.6-11.68-19.44-19.98c-4.84-8.3-7.25-17.47-7.25-27.51v-12.59
		c0-0.91,0.45-1.37,1.37-1.37h30.66c0.73,0,1.09,0.46,1.09,1.37v12.59c0,6.02,2.01,11.18,6.02,15.47c4.01,4.29,8.85,6.43,14.51,6.43
		c5.65,0,10.49-2.19,14.51-6.57c4.01-4.38,6.02-9.49,6.02-15.33c0-6.75-4.38-12.59-13.14-17.52c-2.92-1.64-7.49-4.2-13.69-7.67
		c-6.21-3.46-12.05-6.75-17.52-9.86c-10.04-5.84-17.48-13.18-22.31-22.04c-4.84-8.85-7.26-18.84-7.26-29.98
		c0-10.22,2.46-19.39,7.39-27.51c4.93-8.12,11.45-14.55,19.57-19.3c8.12-4.74,16.93-7.12,26.42-7.12c9.67,0,18.57,2.42,26.69,7.25
		c8.12,4.84,14.6,11.32,19.44,19.44c4.83,8.12,7.25,17.2,7.25,27.24v22.45c0,0.73-0.37,1.1-1.1,1.1h-30.66c-0.73,0-1.1-0.36-1.1-1.1
		l-0.27-22.45c0-6.39-2.01-11.59-6.02-15.6c-4.02-4.01-8.76-6.02-14.24-6.02c-5.66,0-10.5,2.15-14.51,6.43
		c-4.02,4.29-6.02,9.35-6.02,15.19c0,6.02,1.28,11.05,3.83,15.06c2.55,4.02,7.21,7.85,13.96,11.5c0.91,0.55,2.69,1.51,5.34,2.87
		c2.64,1.37,5.52,2.92,8.62,4.65c3.1,1.74,5.89,3.24,8.35,4.52c2.46,1.28,3.97,2.1,4.52,2.46c9.12,5.11,16.33,11.36,21.63,18.75
		c5.29,7.39,7.94,16.47,7.94,27.24c0,10.4-2.42,19.76-7.26,28.06c-4.84,8.31-11.32,14.88-19.44,19.71
		C1029.28,197.34,1020.29,199.76,1010.44,199.76z"/>
</g>
</svg>
